# xmcd
# 
# Track frame offsets:
#     150
#     16550
#     34802
#     56328
#     77206
#     96212
#     117471
#     133542
#     155842
#     173136
#     190018
#     203818
#     228142
#     245984
#     270275
#     293585
# 
# Disc length: 4163
# 
# Revision: 1
# Processed by: cddbd v1.5.2PL0 Copyright (c) Steve Scherf et al.
# Submitted via: fre:ac v1.0.31
# 
DISCID=d1104110
DTITLE=Suburban Tribe - Recollection
DYEAR=2007
DGENRE=Hard Rock
TTITLE0=Shock The Monkey
TTITLE1=While The World Awaits
TTITLE2=Watching You
TTITLE3=Frozen Ashes
TTITLE4=Nevermore
TTITLE5=Carved In Silence
TTITLE6=Untameable
TTITLE7=Oil And Water
TTITLE8=Nothingness
TTITLE9=Torn Apart
TTITLE10=Complications
TTITLE11=Colour Of Silence
TTITLE12=Sunflower (2007)
TTITLE13=Into The Blue
TTITLE14=Silent Rain
TTITLE15=The Weight
EXTD=
EXTT0=
EXTT1=
EXTT2=
EXTT3=
EXTT4=
EXTT5=
EXTT6=
EXTT7=
EXTT8=
EXTT9=
EXTT10=
EXTT11=
EXTT12=
EXTT13=
EXTT14=
EXTT15=
PLAYORDER=
